<?xml version="1.0" standalone="no"?>
<!DOCTYPE svg PUBLIC "-//W3C//DTD SVG 20010904//EN"
 "http://www.w3.org/TR/2001/REC-SVG-20010904/DTD/svg10.dtd">
<svg version="1.0" xmlns="http://www.w3.org/2000/svg"
 width="2000.000000pt" height="2000.000000pt" viewBox="0 0 2000.000000 2000.000000"
 preserveAspectRatio="xMidYMid meet">
<metadata>
Created by potrace 1.14, written by Peter Selinger 2001-2017
</metadata>
<g transform="translate(0.000000,2000.000000) scale(0.100000,-0.100000)"
fill="#000000" stroke="none">
<path d="M9628 19755 c-2 -1 -61 -5 -133 -9 -71 -4 -157 -9 -190 -11 -181 -14
-212 -16 -240 -20 -16 -2 -59 -7 -95 -10 -78 -6 -133 -13 -220 -25 -36 -5 -84
-11 -106 -14 -40 -5 -210 -31 -264 -41 -96 -18 -140 -25 -175 -31 -22 -3 -69
-12 -105 -20 -36 -8 -81 -17 -100 -20 -69 -11 -468 -109 -630 -154 -135 -38
-375 -111 -395 -120 -11 -5 -51 -18 -90 -31 -199 -62 -567 -205 -840 -326
-165 -73 -558 -265 -646 -316 -24 -14 -71 -40 -104 -58 -33 -17 -81 -44 -108
-58 -314 -172 -803 -499 -1172 -784 -128 -99 -357 -288 -439 -362 -13 -11 -58
-51 -101 -90 -609 -541 -1245 -1288 -1685 -1980 -94 -147 -210 -336 -210 -341
0 -3 -16 -30 -35 -60 -19 -30 -35 -56 -35 -58 0 -2 -30 -57 -66 -122 -83 -148
-314 -607 -329 -654 -1 -3 -14 -32 -29 -65 -15 -33 -50 -114 -78 -180 -27 -66
-55 -133 -63 -150 -37 -86 -168 -440 -180 -485 -2 -8 -20 -62 -40 -120 -84
-247 -232 -792 -268 -990 -3 -14 -14 -68 -25 -120 -11 -52 -23 -111 -26 -130
-3 -19 -13 -75 -21 -125 -9 -49 -18 -101 -20 -115 -2 -14 -6 -38 -9 -55 -2
-16 -10 -66 -16 -110 -6 -44 -13 -90 -15 -103 -2 -13 -7 -53 -10 -90 -4 -37
-8 -74 -10 -82 -2 -8 -7 -46 -10 -85 -3 -38 -8 -81 -10 -95 -3 -14 -7 -65 -11
-115 -3 -49 -7 -108 -9 -130 -27 -334 -27 -1116 0 -1405 2 -19 6 -71 9 -115 4
-44 8 -93 10 -110 2 -16 7 -61 11 -100 6 -72 12 -124 20 -185 2 -19 7 -57 10
-85 3 -27 8 -61 11 -75 2 -14 7 -43 9 -65 3 -22 7 -51 10 -65 2 -14 7 -38 9
-55 5 -33 33 -192 42 -240 14 -78 56 -284 64 -315 5 -19 11 -46 14 -60 6 -35
45 -198 57 -240 5 -19 28 -100 50 -180 22 -80 41 -149 43 -155 1 -5 8 -30 15
-55 17 -63 179 -551 191 -575 5 -11 42 -105 83 -210 90 -231 197 -473 314
-712 77 -158 216 -422 242 -463 6 -8 22 -37 37 -65 15 -27 42 -74 60 -103 19
-29 34 -54 34 -56 0 -22 397 -627 473 -721 4 -5 36 -48 70 -95 66 -91 233
-306 254 -328 7 -8 26 -30 41 -50 15 -21 32 -42 37 -48 6 -6 33 -37 60 -70
338 -397 733 -795 1085 -1095 41 -35 77 -66 80 -69 3 -4 43 -37 90 -75 47 -38
87 -72 90 -75 6 -6 61 -49 170 -131 47 -35 87 -67 90 -70 13 -15 351 -252 494
-346 177 -117 503 -314 641 -388 50 -26 95 -51 100 -56 17 -13 466 -235 570
-282 196 -88 297 -132 305 -132 3 -1 27 -11 54 -23 27 -12 54 -22 60 -22 7 0
16 -4 22 -9 39 -36 868 -312 1100 -366 10 -2 82 -20 159 -40 77 -19 150 -37
161 -39 12 -2 75 -16 140 -30 127 -27 363 -71 429 -81 23 -3 52 -8 65 -10 24
-5 103 -18 183 -29 21 -4 59 -8 85 -11 26 -3 58 -7 72 -10 14 -2 49 -7 78 -10
75 -7 141 -14 187 -20 22 -2 78 -7 125 -11 47 -3 101 -7 120 -9 158 -14 383
-20 715 -20 382 1 622 9 810 30 22 2 74 6 115 10 41 3 91 8 110 10 19 2 60 7
90 10 30 4 66 8 80 10 14 2 63 9 110 15 129 17 153 20 180 25 14 3 39 7 55 9
91 14 230 40 366 67 191 38 187 37 207 43 9 3 28 7 42 10 86 17 354 85 515
132 283 81 800 257 950 324 11 5 81 34 155 66 74 31 173 74 218 95 46 22 86
39 88 39 7 0 449 221 519 260 487 266 945 563 1344 873 99 76 139 109 228 182
7 5 18 15 25 20 26 21 194 163 219 186 14 13 59 53 99 89 258 228 665 644 891
914 13 16 29 34 34 40 6 6 62 74 124 151 62 77 120 149 129 160 10 11 42 54
72 95 30 41 57 77 60 80 13 10 229 319 301 430 113 173 146 224 221 350 38 63
73 122 78 130 112 178 390 725 502 990 22 52 44 100 47 105 4 6 17 37 30 70
13 33 29 74 36 90 6 17 27 68 45 115 17 47 36 94 40 105 40 96 176 500 219
653 12 39 30 102 40 140 58 203 148 579 165 688 4 21 13 66 20 99 8 33 19 94
26 135 7 41 14 84 16 95 3 16 27 172 49 324 3 18 8 57 10 86 3 28 7 61 9 72 3
11 7 56 11 99 3 43 8 90 10 104 4 23 9 84 20 225 27 364 27 1148 0 1405 -2 19
-7 76 -10 125 -3 50 -8 106 -10 125 -2 19 -9 78 -14 130 -17 150 -54 426 -66
490 -3 13 -7 42 -10 65 -3 22 -9 60 -14 85 -5 25 -14 70 -20 100 -8 43 -41
204 -76 369 -10 49 -77 321 -85 346 -6 17 -24 80 -41 140 -81 291 -249 785
-334 980 -7 17 -23 55 -35 85 -20 49 -96 223 -152 350 -112 250 -380 752 -541
1010 -98 159 -301 464 -379 570 -22 30 -47 66 -56 80 -36 54 -270 357 -348
450 -30 35 -264 307 -292 339 -195 221 -521 544 -777 770 -183 161 -192 169
-250 216 -28 21 -52 42 -55 45 -35 37 -409 319 -590 446 -234 163 -573 377
-775 489 -27 15 -90 50 -140 78 -495 276 -1197 573 -1785 754 -272 84 -712
196 -930 237 -32 6 -127 25 -160 31 -47 9 -315 54 -360 60 -25 3 -56 8 -70 10
-14 2 -50 7 -80 11 -30 4 -66 8 -80 10 -14 2 -92 10 -175 19 -82 8 -168 17
-190 20 -22 2 -87 7 -145 11 -58 3 -125 8 -150 10 -50 5 -916 14 -922 9z"/>
</g>
</svg>
